<?xml version="1.0" encoding="UTF-8" standalone="no"?>
<!-- Created with Inkscape (http://www.inkscape.org/) -->

<svg
   xmlns:dc="http://purl.org/dc/elements/1.1/"
   xmlns:cc="http://creativecommons.org/ns#"
   xmlns:rdf="http://www.w3.org/1999/02/22-rdf-syntax-ns#"
   xmlns:svg="http://www.w3.org/2000/svg"
   xmlns="http://www.w3.org/2000/svg"
   xmlns:sodipodi="http://sodipodi.sourceforge.net/DTD/sodipodi-0.dtd"
   xmlns:inkscape="http://www.inkscape.org/namespaces/inkscape"
   width="314"
   height="85"
   viewBox="0 0 83.079156 22.489586"
   version="1.1"
   id="svg8"
   inkscape:version="0.92.4 (5da689c313, 2019-01-14)"
   sodipodi:docname="flagboard_logo.svg"
   inkscape:export-filename="C:\Users\Hayden\Pictures\new flag.png"
   inkscape:export-xdpi="1919.9984"
   inkscape:export-ydpi="1919.9984">
  <defs
     id="defs2">
    <style
       type="text/css"
       id="style4536"><![CDATA[
    .fil2 {fill:#302061}
    .fil1 {fill:#E54221}
    .fil0 {fill:#F7D619}
   ]]></style>
  </defs>
  <sodipodi:namedview
     id="base"
     pagecolor="#ffffff"
     bordercolor="#292929"
     borderopacity="1"
     inkscape:pageopacity="0"
     inkscape:pageshadow="2"
     inkscape:zoom="4"
     inkscape:cx="156.07621"
     inkscape:cy="42.896554"
     inkscape:document-units="px"
     inkscape:current-layer="g867"
     showgrid="true"
     units="px"
     showborder="true"
     inkscape:showpageshadow="false"
     inkscape:pagecheckerboard="true"
     inkscape:window-width="1920"
     inkscape:window-height="1017"
     inkscape:window-x="-8"
     inkscape:window-y="-8"
     inkscape:window-maximized="1"
     borderlayer="true"
     inkscape:lockguides="true"
     inkscape:snap-global="true"
     inkscape:snap-bbox="true"
     inkscape:bbox-paths="true"
     inkscape:snap-grids="true"
     inkscape:snap-page="true"
     inkscape:bbox-nodes="true"
     inkscape:snap-bbox-edge-midpoints="true"
     inkscape:snap-bbox-midpoints="true"
     inkscape:object-paths="true"
     inkscape:snap-intersection-paths="true"
     inkscape:snap-midpoints="true"
     inkscape:snap-smooth-nodes="true"
     inkscape:snap-object-midpoints="true"
     inkscape:snap-center="true"
     inkscape:snap-text-baseline="true"
     showguides="true"
     inkscape:guide-bbox="true"
     gridtolerance="20">
    <inkscape:grid
       type="xygrid"
       id="grid812"
       spacingx="1.1024314"
       spacingy="1.1024314"
       color="#000000"
       opacity="0.10980392"
       empcolor="#000000"
       empopacity="0.24705882"
       dotted="false"
       empspacing="12"
       visible="true"
       enabled="false" />
  </sodipodi:namedview>
  <metadata
     id="metadata5">
    <rdf:RDF>
      <cc:Work
         rdf:about="">
        <dc:format>image/svg+xml</dc:format>
        <dc:type
           rdf:resource="http://purl.org/dc/dcmitype/StillImage" />
        <dc:title></dc:title>
      </cc:Work>
    </rdf:RDF>
  </metadata>
  <g
     inkscape:groupmode="layer"
     id="layer2"
     inkscape:label="Background"
     transform="translate(0,-104.5104)"
     sodipodi:insensitive="true" />
  <g
     inkscape:label="Layer 1"
     inkscape:groupmode="layer"
     id="layer1"
     transform="translate(0,-274.5104)"
     style="opacity:1">
    <g
       id="g934"
       transform="matrix(0.23730364,0,0,0.23730364,0.00183958,-176.42724)">
      <g
         transform="translate(-195.24596,-182.5563)"
         id="g883" />
      <g
         id="g946"
         transform="matrix(0.62535025,0,0,0.62535025,0.00194343,810.3793)">
        <g
           id="g867"
           transform="translate(-5.042893)">
          <path
             style="fill:#000000;fill-opacity:1;stroke:none;stroke-width:2.35937238px;stroke-linecap:butt;stroke-linejoin:miter;stroke-opacity:1"
             d="M 108.45066,1772.1724 H 5.027389 l 0.6137484,1.6117 0.01325,0.039 3.0731584,8.0582 0.01325,0.039 2.3092832,6.058 0.763875,2.0002 30.917034,81.1032 H 115.13566 L 99.195865,1830.5309 H 43.600828 L 27.661024,1789.9792 H 98.87352 l 30.92145,81.1032 h 16.36369 l -30.92144,-81.1032 -1.541,-4.0489 -1.54541,-4.049 -3.0864,-8.0979 z"
             id="path987"
             inkscape:connector-curvature="0" />
          <path
             style="color:#000000;font-style:normal;font-variant:normal;font-weight:normal;font-stretch:normal;font-size:123.95077515px;line-height:1.25;font-family:'MS PGothic';-inkscape-font-specification:'MS PGothic';font-variant-ligatures:normal;font-variant-position:normal;font-variant-caps:normal;font-variant-numeric:normal;font-variant-alternates:normal;font-feature-settings:normal;text-indent:0;text-align:start;text-decoration:none;text-decoration-line:none;text-decoration-style:solid;text-decoration-color:#000000;letter-spacing:0px;word-spacing:0px;text-transform:none;writing-mode:lr-tb;direction:ltr;text-orientation:mixed;dominant-baseline:auto;baseline-shift:baseline;text-anchor:start;white-space:normal;shape-padding:0;clip-rule:nonzero;display:inline;overflow:visible;visibility:visible;opacity:1;isolation:auto;mix-blend-mode:normal;color-interpolation:sRGB;color-interpolation-filters:linearRGB;solid-color:#000000;solid-opacity:1;vector-effect:none;fill:#000000;fill-opacity:1;fill-rule:nonzero;stroke:none;stroke-width:5.2001133;stroke-linecap:butt;stroke-linejoin:miter;stroke-miterlimit:4;stroke-dasharray:none;stroke-dashoffset:0;stroke-opacity:1;color-rendering:auto;image-rendering:auto;shape-rendering:auto;text-rendering:auto;enable-background:accumulate"
             d="m 127.66923,1772.1725 1.39858,3.5491 37.48155,95.3615 h 13.29248 l 38.87621,-98.9106 H 200.1117 l -26.9161,70.5959 -26.91611,-70.5959 z m 221.82704,0.5415 v 2.5987 95.2289 h 17.65968 v -43.337 h 39.21517 v 43.337 h 17.65967 v -97.8276 h -17.65967 v 39.001 h -39.21517 v -39.001 z m 155.46205,0 v 2.5987 95.2289 h 16.03126 v -3.4789 c 3.73171,2.9206 8.51496,4.562 14.19241,4.562 8.11997,0 15.06866,-2.6138 20.2582,-7.8032 6.33324,-6.3336 9.42781,-15.2643 9.42781,-26.2151 0,-11.2957 -3.07538,-20.4039 -9.42781,-26.7564 -5.16597,-5.1659 -11.93093,-7.8033 -19.71668,-7.8033 -5.48203,0 -10.46102,1.8131 -14.73393,5.1462 v -35.4789 z m -264.64583,30.8743 c -8.49613,0 -15.80402,2.8075 -21.34122,8.3448 -6.62567,6.6257 -9.96933,15.3776 -9.96933,25.6733 0,10.2639 3.13285,18.8368 9.42783,25.1319 5.90705,5.907 13.75723,8.8864 22.96575,8.8864 8.79559,0 16.10454,-2.5668 21.3412,-7.8032 3.72674,-3.727 6.22682,-9.0892 7.74099,-15.9029 l 0.70123,-3.1633 h -17.75706 v 2.6024 c 0,2.5759 -0.8971,4.6916 -3.03095,6.8254 -1.45171,1.4518 -4.31116,2.4894 -8.99541,2.4894 -4.4985,0 -7.84654,-1.3405 -10.61997,-4.114 -2.57755,-2.5775 -4.11258,-6.6558 -4.49185,-12.3535 h 43.7109 v -2.5986 c 0,-10.8907 -2.65441,-19.4413 -8.34479,-25.1319 -5.84577,-5.8456 -13.13476,-8.8862 -21.33732,-8.8862 z m 34.04542,1.083 2.81666,4.0789 19.54137,28.2836 -24.09945,33.5078 h 18.86738 l 14.91313,-20.8815 14.91316,20.8815 h 18.87126 l -24.10333,-33.5078 22.36191,-32.3625 h -18.80115 l -13.24185,19.6233 -13.24572,-19.6233 z m 162.34979,0 v 2.5984 44.42 c 0,5.613 1.90663,10.571 5.63334,14.2977 3.96509,3.9652 10.13722,5.6373 18.09211,5.6373 6.95643,0 13.21971,-2.6805 18.52457,-7.6631 v 6.58 h 16.03511 v -65.8703 h -16.03511 v 33.4767 c 0,4.9654 -2.27306,9.8622 -7.36301,14.9521 -3.21292,3.2129 -6.59217,4.6555 -10.62003,4.6555 -2.7686,0 -4.49223,-0.6901 -5.74628,-1.944 -1.55385,-1.5539 -2.48944,-4.0123 -2.48944,-7.9124 v -43.2279 z m -196.93672,13.3275 c 4.22786,0 7.03663,1.0684 8.9954,3.0271 1.71332,1.7134 2.54821,3.4742 3.03485,5.3138 h -24.10725 c 0.74554,-1.7547 1.69054,-3.3813 3.08157,-4.7723 2.42934,-2.4293 5.2398,-3.5686 8.99543,-3.5686 z m 295.41101,0 c 2.91782,0 5.40642,1.0627 7.91235,3.5686 2.90644,2.9064 4.65551,8.1101 4.65551,16.039 0,7.5113 -1.8376,12.6756 -5.19704,16.0351 -2.09005,2.0901 -4.36635,3.031 -7.37082,3.031 -3.68343,0 -6.69542,-1.2724 -9.537,-4.114 -3.1515,-3.1517 -4.65541,-6.8639 -4.65541,-11.703 v -6.5021 c 0,-5.2903 1.40859,-8.9975 4.114,-11.7027 3.24348,-3.2436 6.46724,-4.6519 10.07841,-4.6519 z"
             id="text876"
             inkscape:connector-curvature="0" />
          <g
             aria-label="VEX HUB"
             style="font-style:normal;font-variant:normal;font-weight:normal;font-stretch:normal;font-size:79.61448669px;line-height:1.25;font-family:'MS PGothic';-inkscape-font-specification:'MS PGothic';letter-spacing:0px;word-spacing:0px;opacity:1;fill:#000000;fill-opacity:1;stroke:#000000;stroke-width:11.94217205;stroke-miterlimit:4;stroke-dasharray:none;stroke-opacity:1"
             id="text876-6" />
          <text
             xml:space="preserve"
             style="font-style:normal;font-variant:normal;font-weight:normal;font-stretch:normal;font-size:47.5448494px;line-height:1.25;font-family:comic;-inkscape-font-specification:comic;letter-spacing:0px;word-spacing:0px;fill:#000000;fill-opacity:1;stroke:none;stroke-width:1.78293192"
             x="346.45886"
             y="1829.2981"
             id="text933"><tspan
               sodipodi:role="line"
               id="tspan931"
               x="346.45886"
               y="1872.6747"
               style="stroke-width:1.78293192" /></text>
        </g>
      </g>
    </g>
  </g>
</svg>
