<?xml version="1.0" encoding="UTF-8" standalone="no"?>
<!-- Created with Inkscape (http://www.inkscape.org/) -->

<svg
   xmlns:dc="http://purl.org/dc/elements/1.1/"
   xmlns:cc="http://creativecommons.org/ns#"
   xmlns:rdf="http://www.w3.org/1999/02/22-rdf-syntax-ns#"
   xmlns:svg="http://www.w3.org/2000/svg"
   xmlns="http://www.w3.org/2000/svg"
   xmlns:sodipodi="http://sodipodi.sourceforge.net/DTD/sodipodi-0.dtd"
   xmlns:inkscape="http://www.inkscape.org/namespaces/inkscape"
   width="400"
   height="71"
   viewBox="0 0 105.83332 18.785419"
   version="1.1"
   id="svg8"
   inkscape:version="0.92.4 (5da689c313, 2019-01-14)"
   sodipodi:docname="flagboard_logo.svg"
   inkscape:export-filename="C:\Users\Hayden\Pictures\new flag.png"
   inkscape:export-xdpi="1919.9984"
   inkscape:export-ydpi="1919.9984">
  <defs
     id="defs2">
    <style
       type="text/css"
       id="style4536"><![CDATA[
    .fil2 {fill:#302061}
    .fil1 {fill:#E54221}
    .fil0 {fill:#F7D619}
   ]]></style>
  </defs>
  <sodipodi:namedview
     id="base"
     pagecolor="#ffffff"
     bordercolor="#292929"
     borderopacity="1"
     inkscape:pageopacity="0"
     inkscape:pageshadow="2"
     inkscape:zoom="1.3930004"
     inkscape:cx="364.87641"
     inkscape:cy="-22.396787"
     inkscape:document-units="px"
     inkscape:current-layer="g946"
     showgrid="true"
     units="px"
     showborder="true"
     inkscape:showpageshadow="false"
     inkscape:pagecheckerboard="true"
     inkscape:window-width="1920"
     inkscape:window-height="1017"
     inkscape:window-x="-8"
     inkscape:window-y="-8"
     inkscape:window-maximized="1"
     borderlayer="true"
     inkscape:lockguides="true"
     inkscape:snap-global="true"
     inkscape:snap-bbox="true"
     inkscape:bbox-paths="true"
     inkscape:snap-grids="true"
     inkscape:snap-page="true"
     inkscape:bbox-nodes="true"
     inkscape:snap-bbox-edge-midpoints="true"
     inkscape:snap-bbox-midpoints="true"
     inkscape:object-paths="true"
     inkscape:snap-intersection-paths="true"
     inkscape:snap-midpoints="true"
     inkscape:snap-smooth-nodes="true"
     inkscape:snap-object-midpoints="true"
     inkscape:snap-center="true"
     inkscape:snap-text-baseline="true"
     showguides="true"
     inkscape:guide-bbox="true"
     gridtolerance="20">
    <inkscape:grid
       type="xygrid"
       id="grid812"
       spacingx="1.1024314"
       spacingy="1.1024314"
       color="#000000"
       opacity="0.10980392"
       empcolor="#000000"
       empopacity="0.24705882"
       dotted="false"
       empspacing="12"
       visible="true"
       enabled="false" />
  </sodipodi:namedview>
  <metadata
     id="metadata5">
    <rdf:RDF>
      <cc:Work
         rdf:about="">
        <dc:format>image/svg+xml</dc:format>
        <dc:type
           rdf:resource="http://purl.org/dc/dcmitype/StillImage" />
        <dc:title></dc:title>
      </cc:Work>
    </rdf:RDF>
  </metadata>
  <g
     inkscape:groupmode="layer"
     id="layer2"
     inkscape:label="Background"
     transform="translate(0,-108.21457)"
     sodipodi:insensitive="true" />
  <g
     inkscape:label="Layer 1"
     inkscape:groupmode="layer"
     id="layer1"
     transform="translate(0,-278.21457)"
     style="opacity:1">
    <g
       id="g934"
       transform="matrix(0.23730364,0,0,0.23730364,0.00183958,-176.42724)">
      <g
         transform="translate(-195.24596,-182.5563)"
         id="g883" />
      <g
         id="g946"
         transform="matrix(0.62535025,0,0,0.62535025,0.00194343,810.3793)">
        <path
           style="font-style:normal;font-variant:normal;font-weight:normal;font-stretch:normal;font-size:145.07855225px;line-height:1.25;font-family:'Franklin Gothic Medium';-inkscape-font-specification:'Franklin Gothic Medium, ';letter-spacing:0px;word-spacing:0px;opacity:1;fill:#ffffff;fill-opacity:1;stroke:none;stroke-width:3.05140758"
           d="M 55.150391 2.3828125 L 55.150391 56.617188 L 65.203125 56.617188 L 65.203125 33.732422 L 84.275391 33.732422 L 84.275391 25.585938 L 65.203125 25.585938 L 65.203125 10.765625 L 89.439453 10.765625 L 89.439453 2.3828125 L 55.150391 2.3828125 z M 95.916016 2.3828125 L 95.916016 56.617188 L 104.97461 56.617188 L 104.97461 2.3828125 L 95.916016 2.3828125 z M 193.06055 8.8203125 C 187.84243 8.8203125 184.6247 11.37614 183.40625 16.488281 C 180.78395 15.932044 178.20104 15.654297 175.6582 15.654297 C 170.09574 15.654297 165.94896 16.832025 163.2207 19.189453 C 160.49245 21.546881 159.12891 24.394923 159.12891 27.732422 C 159.12891 31.679142 160.9831 34.777837 164.69141 37.029297 C 160.42685 39.095332 158.29492 41.876634 158.29492 45.373047 C 158.29492 47.677491 159.53943 49.888793 162.0293 52.007812 C 158.13558 53.861987 156.18945 56.576473 156.18945 60.152344 C 156.18945 67.383504 162.6646 71 175.61719 71 C 182.50404 71 187.69695 69.755456 191.19336 67.265625 C 194.71625 64.775756 196.47656 61.637378 196.47656 57.849609 C 196.47656 54.724046 195.3114 52.11403 192.98047 50.021484 C 190.67602 47.902428 187.48539 46.84375 183.40625 46.84375 L 171.48633 46.84375 C 169.65866 46.84375 168.29317 46.432448 167.39258 45.611328 C 166.49199 44.790209 166.04297 43.89019 166.04297 42.910156 C 166.04297 41.135476 166.97007 39.824193 168.82422 38.976562 C 171.65843 39.665241 174.13487 40.009766 176.25391 40.009766 C 181.15417 40.009766 185.08804 38.844589 188.05469 36.513672 C 191.04782 34.182717 192.54297 31.242719 192.54297 27.693359 C 192.54297 24.514775 190.95394 21.627049 187.77539 19.03125 C 188.64949 17.441958 189.5369 16.50034 190.4375 16.208984 C 191.36458 15.917592 192.43781 15.773438 193.65625 15.773438 L 196.4375 15.773438 L 196.4375 8.8203125 L 193.06055 8.8203125 z M 132.82617 15.654297 C 127.10479 15.654297 122.73447 16.740106 119.71484 18.912109 C 116.69522 21.057639 114.97459 23.79922 114.55078 27.136719 L 122.25781 28.289062 C 122.99947 24.130407 126.12527 22.050781 131.63477 22.050781 C 137.30318 22.050781 140.13672 24.130407 140.13672 28.289062 L 140.13672 31.308594 C 139.05071 31.282046 138.1904 31.267578 137.55469 31.267578 C 121.37057 31.267578 113.2793 35.877927 113.2793 45.095703 C 113.2793 48.6451 114.48413 51.59765 116.89453 53.955078 C 119.33142 56.285995 122.54915 57.451172 126.54883 57.451172 C 133.19729 57.451172 137.72632 54.47149 140.13672 48.511719 C 140.29565 51.478368 140.7592 54.180303 141.52734 56.617188 L 150.15039 56.617188 C 149.35576 53.835963 148.95703 51.134029 148.95703 48.511719 L 148.95703 30.394531 C 148.95703 26.951102 148.69382 24.514362 148.16406 23.083984 C 147.66079 21.62717 146.73369 20.288755 145.38281 19.070312 C 144.03193 17.825397 142.37612 16.95251 140.41602 16.449219 C 138.45591 15.919455 135.92526 15.654297 132.82617 15.654297 z M 176.01562 21.375 C 178.37305 21.375 180.16046 21.984683 181.37891 23.203125 C 182.62384 24.421567 183.24609 25.918642 183.24609 27.693359 C 183.24609 32.328721 180.78222 34.644531 175.85547 34.644531 C 173.55102 34.644531 171.75103 34.036802 170.45312 32.818359 C 169.15521 31.599917 168.50586 30.010886 168.50586 28.050781 C 168.50586 26.143623 169.15521 24.552676 170.45312 23.28125 C 171.77752 22.009861 173.63171 21.375 176.01562 21.375 z M 140.13672 36.195312 L 140.13672 39.890625 C 140.13672 42.671849 139.2493 45.160861 137.47461 47.359375 C 135.72641 49.531378 133.13093 50.617188 129.6875 50.617188 C 127.30359 50.617188 125.51618 50.034637 124.32422 48.869141 C 123.15875 47.677209 122.57617 46.246874 122.57617 44.578125 C 122.57617 38.989203 128.42906 36.195312 140.13672 36.195312 z M 165.92383 54.431641 C 168.44018 55.093846 170.61179 55.425781 172.43945 55.425781 L 182.05469 55.425781 C 183.61748 55.425781 185.00812 55.770306 186.22656 56.458984 C 187.445 57.12119 188.05469 58.11309 188.05469 59.4375 C 188.05469 63.013333 184.57179 64.802734 177.60547 64.802734 C 172.86414 64.802734 169.40639 64.099143 167.23438 62.695312 C 165.06236 61.317918 163.97656 59.716336 163.97656 57.888672 C 163.97656 56.776197 164.62592 55.62361 165.92383 54.431641 z "
           transform="matrix(1.7829319,0,0,1.7829319,-0.01550401,1767.7869)"
           id="path819" />
        <path
           style="font-style:normal;font-variant:normal;font-weight:normal;font-stretch:normal;font-size:145.07855225px;line-height:1.25;font-family:'Franklin Gothic Medium';-inkscape-font-specification:'Franklin Gothic Medium, ';letter-spacing:0px;word-spacing:0px;fill:#4874e1;fill-opacity:1;stroke:none;stroke-width:5.4404521;stroke-opacity:1"
           d="m 358.2664,1769.3162 v 102.1349 h 2.72076 42.291 c 10.60488,0 18.96625,-2.6779 24.48639,-8.4124 5.37126,-5.5779 8.12663,-12.6714 8.12663,-20.73 0,-6.483 -1.96665,-12.3314 -5.8415,-17.1488 -2.37879,-2.9574 -5.51604,-5.1664 -9.16224,-6.7986 2.55262,-1.4408 4.79102,-3.2979 6.62131,-5.5997 l 0.006,-0.01 0.004,-0.01 c 3.48303,-4.433 5.25756,-9.7707 5.25756,-15.6368 0,-6.1583 -1.71574,-11.7365 -5.12889,-16.4099 -3.33832,-4.5709 -7.47934,-7.7644 -12.28868,-9.2774 -4.57869,-1.4405 -10.12222,-2.1095 -16.68581,-2.1095 z m 333.29887,0 v 28.7227 c -4.19395,-4.1932 -9.81401,-6.4807 -16.47859,-6.4807 -9.73178,0 -17.75761,4.3567 -23.03687,12.5062 -5.16705,7.9763 -7.73441,17.3595 -7.73441,27.9023 0,11.2523 2.43745,20.9018 7.44141,28.7362 5.09138,7.9714 12.94063,12.2365 22.4803,12.2365 7.50676,0 13.75744,-3.0854 18.39062,-8.6682 v 7.1799 h 20.52952 v -2.7187 -99.4162 z m -311.35394,19.2541 h 18.17824 c 3.37493,0 6.10305,0.8766 8.51523,2.6561 l 0.0119,0.01 0.0119,0.01 c 2.13538,1.5403 3.19309,3.7177 3.19309,7.5686 0,3.4381 -0.98741,5.9138 -3.04685,8.0114 l -0.01,0.01 -0.008,0.01 c -1.95728,2.0311 -4.50996,3.0623 -8.31269,3.0623 h -18.53273 z m 257.61555,3.7672 c -4.55296,0 -8.95134,1.8732 -12.94703,5.2462 -1.52829,1.2901 -2.85862,2.9066 -4.09792,4.6741 v -7.7933 h -20.03292 v 76.9866 h 21.59197 v -2.7187 -33.1546 c 0,-4.4202 1.18433,-9.0606 3.67164,-13.9939 2.17932,-4.2356 6.30623,-6.379 13.93971,-6.379 h 2.7187 v -22.6561 l -2.57656,-0.1348 c -0.92483,-0.049 -1.66566,-0.077 -2.26759,-0.077 z m -160.59398,0.6387 c -10.73749,10e-5 -19.81062,3.8907 -26.48215,11.4789 h -0.002 -0.004 c -6.58335,7.5455 -9.879,17.1059 -9.879,28.2108 0,10.3374 2.98239,19.6943 8.88525,27.7481 6.05786,8.2654 15.18925,12.5176 26.41963,12.5176 10.45513,0 19.43906,-3.7811 26.28937,-11.1388 6.92736,-7.4367 10.36321,-17.3239 10.36321,-29.1269 0,-11.4647 -3.30861,-21.139 -9.97461,-28.5214 -6.60907,-7.3716 -15.38065,-11.1759 -25.61501,-11.176 z m 78.06665,0 c -10.54183,0 -18.9163,1.9711 -24.9608,6.3164 -5.87283,4.1757 -9.4767,9.8573 -10.32445,16.5335 l -0.33589,2.6406 18.9906,2.8381 0.46458,-2.604 c 0.55896,-3.1341 1.82761,-5.1093 4.00026,-6.5547 2.17266,-1.4454 5.46937,-2.3239 10.03867,-2.3239 4.7206,0 7.93249,0.9116 9.76169,2.2536 1.82923,1.342 2.67788,3.0572 2.67788,6.1465 v 2.6231 c -0.59677,-0.01 -1.41036,-0.029 -1.88257,-0.029 -14.68579,0 -25.91736,2.0249 -33.80881,6.5195 -7.8915,4.4947 -12.19513,11.8381 -12.19513,20.8514 0,6.9441 2.48023,13.0618 7.26569,17.7421 l 0.01,0.012 0.0119,0.01 c 4.88202,4.6698 11.43386,6.9882 19.09344,6.9882 9.55476,0 17.27673,-3.5416 22.48236,-10.1838 0.42286,2.3566 0.94821,4.6341 1.62886,6.7933 l 0.59996,1.9023 h 20.97239 l -0.99013,-3.467 c -1.35496,-4.7417 -2.01951,-9.3024 -2.01951,-13.7031 v -32.3029 c 0,-6.2622 -0.39622,-10.734 -1.58028,-13.9491 -1.06664,-3.0709 -3.0131,-5.8367 -5.68337,-8.2481 -2.75198,-2.5328 -6.13897,-4.3054 -10.002,-5.2989 -3.8395,-1.0348 -8.54502,-1.5058 -14.21514,-1.5058 z m 124.10934,17.8382 h 5e-4 c 3.71931,0 6.33461,1.2072 8.61294,3.9177 l 0.0155,0.016 0.014,0.015 c 2.25428,2.5981 3.51349,6.3742 3.51349,11.7481 v 12.113 c 0,4.8149 -1.3099,8.4403 -3.91606,11.3672 h -0.002 v 0 c -2.62988,2.9586 -5.26137,4.1874 -8.45117,4.1874 -4.28313,0 -6.88938,-1.4118 -8.95864,-4.7109 -2.06923,-3.299 -3.33778,-8.8168 -3.33778,-16.5137 0,-7.9692 1.35467,-13.685 3.59927,-17.1504 2.29336,-3.5406 4.93025,-4.992 8.91006,-4.992 z m -202.24626,0.8496 h 5e-4 c 4.66763,10e-5 7.48878,1.5374 9.65008,5.0742 h 0.004 l 0.004,0.01 c 2.22621,3.6023 3.49023,8.857 3.49023,15.8553 0,7.7953 -1.36541,13.3562 -3.61373,16.7091 -2.2483,3.3529 -5.20573,4.8689 -9.96065,4.8689 -4.20055,0 -7.06293,-1.4927 -9.51982,-4.9883 -10e-4,0 -4.3e-4,0 -0.002,-0.01 -2.37529,-3.4472 -3.76773,-8.8416 -3.76773,-16.3008 0,-6.8878 1.29446,-12.1511 3.63079,-15.922 l 0.004,-0.01 0.002,-0.01 c 2.25478,-3.679 5.21968,-5.2891 10.07744,-5.2892 z m -96.9513,17.4961 h 19.8789 c 4.11928,0 7.02925,1.0805 9.26612,3.1657 l 0.01,0.01 0.008,0.01 c 2.31297,2.1203 3.36723,4.5532 3.36723,7.982 0,3.6559 -1.05836,6.1161 -3.27525,8.1075 l -0.01,0.01 -0.008,0.01 c -2.15865,1.9726 -5.13537,3.0427 -9.42941,3.0427 h -19.80707 z m 185.40076,5.9707 v 3.7771 c 0,4.3801 -1.33038,8.1261 -4.14238,11.6096 v 0 h -0.002 c -2.56992,3.1929 -6.19823,4.7951 -11.76571,4.7951 -3.79193,0 -6.15848,-0.8945 -7.63676,-2.3286 -1.61501,-1.6629 -2.32232,-3.3895 -2.32232,-5.7185 0,-4.0326 1.69698,-6.5686 6.2792,-8.7561 4.14658,-1.9794 10.80962,-3.1628 19.59004,-3.3806 z"
           id="path827"
           inkscape:connector-curvature="0" />
        <path
           style="font-style:normal;font-variant:normal;font-weight:normal;font-stretch:normal;font-size:145.07855225px;line-height:1.25;font-family:'Franklin Gothic Medium';-inkscape-font-specification:'Franklin Gothic Medium, ';letter-spacing:0px;word-spacing:0px;fill:#4874e1;fill-opacity:1;stroke:none;stroke-width:5.4404521"
           d="m -0.007752,1772.0359 30.032307,28.1585 -30.04005901,27.7338 H 68.846004 v 40.8032 h 17.921918 v -96.6955 z"
           id="path847"
           inkscape:connector-curvature="0" />
      </g>
    </g>
  </g>
</svg>
