<?xml version="1.0" encoding="UTF-8" standalone="no"?>
<!-- Created with Inkscape (http://www.inkscape.org/) -->

<svg
   xmlns:dc="http://purl.org/dc/elements/1.1/"
   xmlns:cc="http://creativecommons.org/ns#"
   xmlns:rdf="http://www.w3.org/1999/02/22-rdf-syntax-ns#"
   xmlns:svg="http://www.w3.org/2000/svg"
   xmlns="http://www.w3.org/2000/svg"
   xmlns:sodipodi="http://sodipodi.sourceforge.net/DTD/sodipodi-0.dtd"
   xmlns:inkscape="http://www.inkscape.org/namespaces/inkscape"
   width="400"
   height="85"
   viewBox="0 0 105.83332 22.489586"
   version="1.1"
   id="svg8"
   inkscape:version="0.92.4 (5da689c313, 2019-01-14)"
   sodipodi:docname="flagboard_logo.svg"
   inkscape:export-filename="C:\Users\Hayden\Pictures\new flag.png"
   inkscape:export-xdpi="1919.9984"
   inkscape:export-ydpi="1919.9984">
  <defs
     id="defs2">
    <style
       type="text/css"
       id="style4536"><![CDATA[
    .fil2 {fill:#302061}
    .fil1 {fill:#E54221}
    .fil0 {fill:#F7D619}
   ]]></style>
  </defs>
  <sodipodi:namedview
     id="base"
     pagecolor="#ffffff"
     bordercolor="#292929"
     borderopacity="1"
     inkscape:pageopacity="0"
     inkscape:pageshadow="2"
     inkscape:zoom="2.8284271"
     inkscape:cx="216.30375"
     inkscape:cy="37.653498"
     inkscape:document-units="px"
     inkscape:current-layer="g946"
     showgrid="true"
     units="px"
     showborder="true"
     inkscape:showpageshadow="false"
     inkscape:pagecheckerboard="true"
     inkscape:window-width="1920"
     inkscape:window-height="1017"
     inkscape:window-x="-8"
     inkscape:window-y="-8"
     inkscape:window-maximized="1"
     borderlayer="true"
     inkscape:lockguides="true"
     inkscape:snap-global="true"
     inkscape:snap-bbox="true"
     inkscape:bbox-paths="true"
     inkscape:snap-grids="true"
     inkscape:snap-page="true"
     inkscape:bbox-nodes="true"
     inkscape:snap-bbox-edge-midpoints="true"
     inkscape:snap-bbox-midpoints="true"
     inkscape:object-paths="true"
     inkscape:snap-intersection-paths="true"
     inkscape:snap-midpoints="true"
     inkscape:snap-smooth-nodes="true"
     inkscape:snap-object-midpoints="true"
     inkscape:snap-center="true"
     inkscape:snap-text-baseline="true"
     showguides="true"
     inkscape:guide-bbox="true"
     gridtolerance="20">
    <inkscape:grid
       type="xygrid"
       id="grid812"
       spacingx="1.1024314"
       spacingy="1.1024314"
       color="#000000"
       opacity="0.10980392"
       empcolor="#000000"
       empopacity="0.24705882"
       dotted="false"
       empspacing="12"
       visible="true"
       enabled="false" />
  </sodipodi:namedview>
  <metadata
     id="metadata5">
    <rdf:RDF>
      <cc:Work
         rdf:about="">
        <dc:format>image/svg+xml</dc:format>
        <dc:type
           rdf:resource="http://purl.org/dc/dcmitype/StillImage" />
        <dc:title></dc:title>
      </cc:Work>
    </rdf:RDF>
  </metadata>
  <g
     inkscape:groupmode="layer"
     id="layer2"
     inkscape:label="Background"
     transform="translate(0,-104.5104)"
     sodipodi:insensitive="true" />
  <g
     inkscape:label="Layer 1"
     inkscape:groupmode="layer"
     id="layer1"
     transform="translate(0,-274.5104)"
     style="opacity:1">
    <g
       id="g934"
       transform="matrix(0.23730364,0,0,0.23730364,0.00183958,-176.42724)">
      <g
         transform="translate(-195.24596,-182.5563)"
         id="g883" />
      <g
         id="g946"
         transform="matrix(0.62535025,0,0,0.62535025,0.00194343,810.3793)">
        <path
           style="font-style:normal;font-variant:normal;font-weight:normal;font-stretch:normal;font-size:145.07855225px;line-height:1.25;font-family:'Franklin Gothic Medium';-inkscape-font-specification:'Franklin Gothic Medium, ';letter-spacing:0px;word-spacing:0px;opacity:1;fill:#ffffff;fill-opacity:1;stroke:none;stroke-width:5.58854008"
           d="m 100.9904,1768.2654 v 99.3283 h 18.4112 v -41.9126 h 34.93015 v -14.92 H 119.4016 v -27.1429 h 44.38795 v -15.3528 z m 74.66073,0 v 99.3283 h 16.59048 v -99.3283 z m 177.91662,11.79 c -9.5568,0 -15.44995,4.681 -17.6815,14.0436 -4.80264,-1.0186 -9.53314,-1.5274 -14.19026,-1.5274 -10.18744,0 -17.78212,2.157 -22.77883,6.4746 -4.99668,4.3175 -7.49396,9.5336 -7.49396,15.6461 0,7.2283 3.39589,12.9034 10.18752,17.0268 -7.81038,3.784 -11.71494,8.8778 -11.71494,15.2814 0,4.2205 2.27928,8.2704 6.83939,12.1512 -7.13121,3.396 -10.69548,8.3674 -10.69548,14.9164 0,13.2437 11.859,19.8672 35.58119,19.8672 12.61301,0 22.12364,-2.2793 28.52718,-6.8394 6.45204,-4.5601 9.67599,-10.3079 9.67599,-17.2451 0,-5.7244 -2.13396,-10.5045 -6.40297,-14.3369 -4.22051,-3.8809 -10.06403,-5.8199 -17.53483,-5.8199 h -21.83088 c -3.34732,0 -5.84816,-0.7533 -7.49756,-2.2572 -1.6494,-1.5038 -2.47176,-3.1521 -2.47176,-4.947 0,-3.2503 1.69795,-5.6519 5.09376,-7.2043 5.19075,1.2614 9.72626,1.8923 13.6072,1.8923 8.97464,0 16.17938,-2.134 21.61269,-6.403 5.4818,-4.2691 8.22012,-9.6535 8.22012,-16.1541 0,-5.8214 -2.91025,-11.1101 -8.73165,-15.8643 1.60089,-2.9107 3.22614,-4.6352 4.87556,-5.1689 1.69791,-0.5336 3.6635,-0.7976 5.89502,-0.7976 h 5.09376 v -12.7345 z m -110.31704,12.5162 c -10.4785,0 -18.48257,1.9887 -24.01291,5.9667 -5.53033,3.9294 -8.68159,8.9505 -9.45779,15.0629 l 14.11514,2.1106 c 1.35832,-7.6164 7.08311,-11.4253 17.17356,-11.4253 10.38148,0 15.57101,3.8089 15.57101,11.4253 v 5.5302 c -1.98899,-0.049 -3.56462,-0.075 -4.7289,-0.075 -29.64062,0 -44.45948,8.4437 -44.45948,25.3257 0,6.5006 2.2066,11.9081 6.62116,16.2256 4.46307,4.269 10.35623,6.403 17.6815,6.403 12.17641,0 20.47115,-5.4572 24.88572,-16.3722 0.29107,5.4332 1.14004,10.3817 2.54686,14.8448 h 15.7928 c -1.45533,-5.0937 -2.18559,-10.0423 -2.18559,-14.8448 v -33.181 c 0,-6.3066 -0.48207,-10.7693 -1.4523,-13.389 -0.92172,-2.6681 -2.61967,-5.1194 -5.09376,-7.351 -2.47408,-2.2799 -5.50664,-3.8786 -9.09649,-4.8004 -3.58987,-0.9702 -8.22466,-1.4559 -13.90053,-1.4559 z m 79.09988,10.4773 c 4.31755,0 7.59112,1.1166 9.82267,3.3482 2.28004,2.2314 3.41967,4.9734 3.41967,8.2236 0,8.4896 -4.51249,12.7309 -13.53565,12.7309 -4.22051,0 -7.51713,-1.1131 -9.8942,-3.3446 -2.37707,-2.2316 -3.56634,-5.1418 -3.56634,-8.7317 0,-3.4928 1.18927,-6.4066 3.56634,-8.7351 2.42558,-2.3285 5.82147,-3.4913 10.18751,-3.4913 z m -65.71087,27.1428 v 6.7679 c 0,5.0937 -1.62529,9.6522 -4.87556,13.6787 -3.20177,3.978 -7.95529,5.9666 -14.2618,5.9666 -4.36605,0 -7.63963,-1.067 -9.82266,-3.2015 -2.13451,-2.1829 -3.20148,-4.8026 -3.20148,-7.8588 0,-10.2359 10.71935,-15.3529 32.1615,-15.3529 z m 47.22813,33.3993 c 4.6086,1.2127 8.58583,1.8206 11.93312,1.8206 h 17.60995 c 2.8622,0 5.4091,0.631 7.64062,1.8923 2.23154,1.2128 3.34816,3.0295 3.34816,5.4551 0,6.549 -6.37881,9.8262 -19.13736,9.8262 -8.68357,0 -15.01631,-1.2886 -18.99426,-3.8596 -3.97798,-2.5227 -5.96658,-5.456 -5.96658,-8.8032 0,-2.0375 1.18927,-4.1484 3.56635,-6.3314 z"
           id="path819"
           inkscape:connector-curvature="0" />
        <path
           style="font-style:normal;font-variant:normal;font-weight:normal;font-stretch:normal;font-size:145.07855225px;line-height:1.25;font-family:'Franklin Gothic Medium';-inkscape-font-specification:'Franklin Gothic Medium, ';letter-spacing:0px;word-spacing:0px;fill:#4874e1;fill-opacity:1;stroke:none;stroke-width:5.58854055"
           d="M -0.00754099,1768.266 30.84224,1797.191 -0.01550401,1825.6797 H 70.720402 v 41.9139 h 18.40975 v -99.3276 z"
           id="path847"
           inkscape:connector-curvature="0" />
        <path
           style="font-style:normal;font-variant:normal;font-weight:normal;font-stretch:normal;font-size:145.07855225px;line-height:1.25;font-family:'Franklin Gothic Medium';-inkscape-font-specification:'Franklin Gothic Medium, ';letter-spacing:0px;word-spacing:0px;fill:#4874e1;fill-opacity:1;stroke:none;stroke-width:5.29094887;stroke-opacity:1"
           d="m 368.01878,1768.2654 v 99.3283 h 2.64598 41.12885 c 10.31345,0 18.44508,-2.6043 23.81351,-8.1813 5.22367,-5.4246 7.9033,-12.323 7.9033,-20.1604 0,-6.3049 -1.91261,-11.9923 -5.68097,-16.6775 -2.31343,-2.8761 -5.36446,-5.0243 -8.91046,-6.6117 2.48247,-1.4011 4.65937,-3.2073 6.43937,-5.4458 l 0.006,-0.01 0.004,-0.01 c 3.38732,-4.3114 5.11309,-9.5024 5.11309,-15.2073 0,-5.989 -1.6686,-11.4138 -4.98796,-15.9588 -3.24658,-4.4454 -7.27381,-7.5512 -11.95097,-9.0225 -4.45288,-1.4009 -9.84406,-2.0515 -16.22729,-2.0515 z m 324.13984,0 v 27.9334 c -4.0787,-4.078 -9.54433,-6.3026 -16.02576,-6.3026 -9.46436,0 -17.26964,4.2372 -22.40383,12.1624 -5.02506,7.7572 -7.52186,16.8827 -7.52186,27.1358 0,10.9429 2.37048,20.3273 7.23692,27.9463 4.95147,7.7524 12.58502,11.9003 21.86253,11.9003 7.30049,0 13.37939,-3.0006 17.88525,-8.4299 v 6.9826 h 19.96538 v -2.644 -96.6843 z m -302.79798,18.725 h 17.67872 c 3.2822,0 5.93533,0.8525 8.28124,2.5831 l 0.0116,0.01 0.0116,0.01 c 2.07668,1.4978 3.10535,3.6156 3.10535,7.3606 0,3.3436 -0.96029,5.7512 -2.96312,7.791 l -0.0103,0.01 -0.008,0.01 c -1.9035,1.9755 -4.38602,2.9783 -8.08426,2.9783 h -18.02346 z m 250.53631,3.6637 c -4.42785,0 -8.70535,1.8218 -12.59124,5.102 -1.4863,1.2547 -2.78007,2.8269 -3.98531,4.5457 v -7.5791 h -19.48243 v 74.871 h 20.99863 v -2.644 -32.2435 c 0,-4.2987 1.15179,-8.8117 3.57074,-13.6093 2.11944,-4.1192 6.13295,-6.2037 13.55665,-6.2037 h 2.644 v -22.0336 l -2.50575,-0.1312 c -0.89943,-0.046 -1.6199,-0.074 -2.20529,-0.074 z m -156.18087,0.6211 c -10.44243,10e-5 -19.26623,3.7838 -25.75441,11.1635 h -0.002 -0.004 c -6.40245,7.3381 -9.60754,16.6358 -9.60754,27.4357 0,10.0532 2.90044,19.1529 8.64109,26.9855 5.89138,8.0382 14.77184,12.1736 25.69362,12.1736 10.16783,0 18.90488,-3.6772 25.56694,-10.8327 6.73699,-7.2324 10.07845,-16.8478 10.07845,-28.3264 0,-11.1497 -3.21769,-20.5583 -9.70052,-27.7378 -6.42747,-7.1689 -14.95801,-10.8687 -24.9111,-10.8687 z m 75.92137,0 c -10.25212,0 -18.39647,1.9171 -24.27486,6.1428 -5.71145,4.0611 -9.21629,9.5865 -10.04075,16.0795 l -0.32664,2.5679 18.46874,2.76 0.45179,-2.5324 c 0.54362,-3.0481 1.77739,-4.9689 3.89035,-6.3746 2.11296,-1.4056 5.31907,-2.2601 9.76281,-2.2601 4.59088,0 7.7145,0.8865 9.49344,2.1917 1.77896,1.3052 2.6043,2.9732 2.6043,5.9778 v 2.5507 c -0.58037,-0.01 -1.37161,-0.029 -1.83085,-0.029 -14.28223,0 -25.20514,1.9693 -32.87975,6.3404 -7.67463,4.3712 -11.86,11.5129 -11.86,20.2785 0,6.7533 2.41208,12.7029 7.06602,17.2543 l 0.0105,0.013 0.0116,0.01 c 4.74786,4.5416 11.11965,6.7963 18.56876,6.7963 9.29217,0 16.80196,-3.4445 21.86454,-9.904 0.41125,2.2918 0.92215,4.5067 1.5841,6.6066 l 0.58348,1.8501 h 20.39606 l -0.96292,-3.3717 c -1.31772,-4.6115 -1.964,-9.0468 -1.964,-13.3268 v -31.4151 c 0,-6.0901 -0.38534,-10.439 -1.53687,-13.5659 -1.03732,-2.9865 -2.93031,-5.676 -5.52719,-8.0213 -2.67634,-2.4632 -5.97027,-4.187 -9.72715,-5.1533 -3.73398,-1.0064 -8.3102,-1.4643 -13.82451,-1.4643 z m 120.69885,17.3481 h 4.9e-4 c 3.61708,0 6.16052,1.1741 8.37625,3.8102 l 0.0151,0.014 0.0137,0.014 c 2.19233,2.5268 3.41693,6.199 3.41693,11.4254 v 11.7801 c 0,4.6825 -1.27389,8.2083 -3.80845,11.0547 h -0.002 v 0 c -2.55761,2.8774 -5.11678,4.0723 -8.21893,4.0723 -4.16544,0 -6.70007,-1.373 -8.71246,-4.5812 -2.01236,-3.2085 -3.24605,-8.5746 -3.24605,-16.06 0,-7.7502 1.31743,-13.309 3.50036,-16.6791 2.23036,-3.4434 4.79476,-4.8549 8.66521,-4.8549 z m -196.68857,0.8261 h 5.1e-4 c 4.53936,10e-5 7.28298,1.4952 9.38488,4.935 h 0.004 l 0.004,0.01 c 2.16502,3.5033 3.39431,8.6136 3.39431,15.4196 0,7.5811 -1.32788,12.9892 -3.51444,16.2498 -2.18651,3.2609 -5.06266,4.7353 -9.68692,4.7353 -4.08511,0 -6.86883,-1.4519 -9.2582,-4.8512 -9.8e-4,0 -4.3e-4,0 -0.002,-0.01 -2.31001,-3.3524 -3.6642,-8.5987 -3.6642,-15.8527 0,-6.6985 1.2589,-11.8173 3.53102,-15.4845 l 0.004,-0.01 0.002,-0.01 c 2.19283,-3.5779 5.07625,-5.1437 9.8005,-5.1438 z m -94.28709,17.0154 h 19.33264 c 4.00608,0 6.83609,1.0508 9.01148,3.0788 l 0.0105,0.01 0.008,0.01 c 2.24942,2.062 3.2747,4.4281 3.2747,7.7626 0,3.5555 -1.02926,5.9481 -3.18524,7.8848 l -0.0103,0.01 -0.008,0.01 c -2.09933,1.9182 -4.99425,2.9589 -9.17027,2.9589 h -19.26287 z m 180.30599,5.8067 v 3.6733 c 0,4.2597 -1.29384,7.9028 -4.02857,11.2906 v 0 h -0.002 c -2.4993,3.105 -6.0279,4.6632 -11.44239,4.6632 -3.68773,0 -5.98925,-0.8698 -7.4269,-2.2645 -1.57064,-1.6172 -2.2585,-3.2964 -2.2585,-5.5613 0,-3.922 1.65035,-6.3881 6.10664,-8.5156 4.03263,-1.9249 10.51258,-3.0759 19.05173,-3.2877 z"
           id="path827"
           inkscape:connector-curvature="0" />
      </g>
    </g>
  </g>
</svg>
